<svg width="35" height="35" viewBox="0 0 35 35" fill="none" xmlns="http://www.w3.org/2000/svg">
<path d="M12.76 25.14C12.4933 25.14 12.2733 25.0733 12.1 24.94C11.9267 24.7933 11.8267 24.6133 11.8 24.4C11.7733 24.1733 11.8467 23.9467 12.02 23.72L16.74 17.38V18.22L12.28 12.22C12.1067 11.98 12.0267 11.7467 12.04 11.52C12.0667 11.2933 12.1667 11.1133 12.34 10.98C12.5133 10.8333 12.7267 10.76 12.98 10.76C13.1933 10.76 13.38 10.8133 13.54 10.92C13.7133 11.0133 13.8867 11.18 14.06 11.42L17.94 16.74H17.3L21.14 11.42C21.3133 11.18 21.48 11.0133 21.64 10.92C21.8133 10.8133 22.0133 10.76 22.24 10.76C22.5067 10.76 22.7267 10.8333 22.9 10.98C23.0733 11.1133 23.1667 11.2933 23.18 11.52C23.2067 11.7333 23.1267 11.9667 22.94 12.22L18.48 18.22V17.38L23.18 23.72C23.3533 23.9467 23.4267 24.1733 23.4 24.4C23.3867 24.6133 23.2933 24.7933 23.12 24.94C22.9467 25.0733 22.72 25.14 22.44 25.14C22.24 25.14 22.0533 25.0867 21.88 24.98C21.7067 24.8733 21.5267 24.7067 21.34 24.48L17.22 18.84H17.98L13.88 24.48C13.7067 24.7067 13.5267 24.8733 13.34 24.98C13.1667 25.0867 12.9733 25.14 12.76 25.14Z" fill="#ADB5BD"/>
</svg>
